# xmcd
#
# Track frame offsets: 
#        150
#        13469
#        23459
#        32054
#        45381
#        54824
#        66568
#        79963
#        94198
#        105733
#        118175
#        128847
#        141207
#        154901
#        170727
#        180867
#        196721
#        213543
#        230355
#        245415
#        262926
#        285411
#
# Disc length: 4002 seconds
#
# Revision: 0
# Processed by: cddbd v1.5.1PL2 Copyright (c) Steve Scherf et al.
# Submitted via: ExactAudioCopy v0.95a5
#
DISCID=2d0fa016
DTITLE=I Got Soul - Tony Owens
DYEAR=2005
DGENRE=Soul
TTITLE0=I Got Soul
TTITLE1=This Heart Can't Take No More
TTITLE2=I'll Be There
TTITLE3=Wishing, Waiting, Hoping
TTITLE4=I'm a Fool for Lovin' You
TTITLE5=I Need, I Need Your Love
TTITLE6=This is My Prayer
TTITLE7=Confessin' a Feeling
TTITLE8=Got'a Get My Baby Back Home
TTITLE9=I Can't Lose (Part 1)
TTITLE10=I Can't Lose (Part 2)
TTITLE11=I Can Hear Music
TTITLE12=(When You're Wrong) You've Got To Pay The Price
TTITLE13=One Man's Woman, Another Man's Wife
TTITLE14=Loneliness Still Follows Me
TTITLE15=All That Matters
TTITLE16=I Don't Want Nobody But My Baby
TTITLE17=The Letter That Broke My Heart
TTITLE18=Do What You Wanna Do
TTITLE19=Woman I Got To Leave You
TTITLE20=Thank You
TTITLE21=Love Is (The Thing We Feel)
EXTD=
EXTT0=
EXTT1=
EXTT2=
EXTT3=
EXTT4=
EXTT5=
EXTT6=
EXTT7=
EXTT8=
EXTT9=
EXTT10=
EXTT11=
EXTT12=
EXTT13=
EXTT14=
EXTT15=
EXTT16=
EXTT17=
EXTT18=
EXTT19=
EXTT20=
EXTT21=
PLAYORDER=
